<?xml version="1.0" standalone="no"?>
<!DOCTYPE svg PUBLIC "-//W3C//DTD SVG 20010904//EN"
 "http://www.w3.org/TR/2001/REC-SVG-20010904/DTD/svg10.dtd">
<svg version="1.0" xmlns="http://www.w3.org/2000/svg"
 width="1080.000000pt" height="1080.000000pt" viewBox="0 0 1080.000000 1080.000000"
 preserveAspectRatio="xMidYMid meet">

<g transform="translate(0.000000,1080.000000) scale(0.100000,-0.100000)"
fill="#000000" stroke="none">
<path d="M4235 9398 c-3 -7 -4 -247 -3 -533 l3 -520 1113 -3 1112 -2 0 -1550
0 -1550 -1755 0 -1755 0 -2 1558 -3 1557 -622 3 -623 2 0 -3810 0 -3810 625 0
625 0 0 1720 0 1720 1753 -2 1752 -3 3 -1717 2 -1718 620 0 620 0 0 525 c0
343 3 525 10 525 7 0 10 1098 10 3275 l0 3275 1110 0 1110 0 0 535 0 535
-2850 0 c-2271 0 -2852 -3 -2855 -12z"/>
</g>
</svg>
